<?xml version="1.0" standalone="no"?>
<!DOCTYPE svg PUBLIC "-//W3C//DTD SVG 20010904//EN"
 "http://www.w3.org/TR/2001/REC-SVG-20010904/DTD/svg10.dtd">
<svg version="1.0" xmlns="http://www.w3.org/2000/svg"
 width="2000.000000pt" height="2000.000000pt" viewBox="0 0 2000.000000 2000.000000"
 preserveAspectRatio="xMidYMid meet">
<metadata>
Created by potrace 1.14, written by Peter Selinger 2001-2017
</metadata>
<g transform="translate(0.000000,2000.000000) scale(0.100000,-0.100000)"
fill="#000000" stroke="none">
<path d="M15226 17849 c120 -124 157 -173 314 -408 333 -501 646 -921 776
-1042 22 -20 98 -83 169 -141 72 -57 215 -173 318 -257 104 -84 191 -150 194
-147 6 6 -45 187 -99 351 -130 393 -278 685 -454 896 -245 294 -676 586 -1149
776 -160 65 -160 65 -69 -28z"/>
<path d="M4550 17750 c-561 -241 -1019 -589 -1256 -956 -105 -163 -205 -386
-293 -652 -58 -175 -134 -448 -129 -464 2 -6 154 116 338 271 241 203 355 306
407 368 141 167 437 597 693 1003 126 202 190 287 297 402 54 58 71 80 61 77
-2 0 -55 -22 -118 -49z"/>
<path d="M17030 16946 c0 -2 20 -39 45 -81 71 -120 144 -271 182 -374 44 -122
83 -271 188 -721 125 -536 178 -715 300 -1030 75 -190 97 -289 75 -329 -14
-28 -64 -45 -88 -32 -12 6 -48 66 -82 132 -119 236 -258 435 -430 613 -132
137 -213 203 -420 346 -402 277 -697 521 -835 689 -27 33 -51 56 -53 51 -6
-17 78 -253 123 -344 60 -122 134 -231 296 -438 198 -251 329 -375 949 -898
354 -299 463 -400 562 -524 45 -56 84 -104 88 -109 3 -4 4 98 2 225 -2 128 1
314 7 413 30 478 24 799 -19 1049 -88 501 -321 905 -711 1231 -86 72 -179 140
-179 131z"/>
<path d="M2740 16709 c-110 -88 -272 -250 -360 -360 -248 -310 -395 -680 -441
-1108 -15 -144 -6 -588 17 -796 9 -82 19 -287 22 -454 l7 -305 81 110 c100
133 203 234 629 614 182 162 410 373 509 470 327 321 577 668 679 945 28 75
67 211 67 233 0 7 -23 -15 -52 -50 -149 -181 -442 -437 -793 -693 -82 -60
-181 -135 -220 -166 -92 -74 -254 -242 -337 -349 -123 -159 -262 -390 -313
-521 -31 -78 -50 -99 -89 -99 -63 0 -82 37 -67 125 11 59 29 116 140 425 55
154 117 402 191 765 164 802 187 876 382 1223 17 28 28 52 26 52 -1 -1 -37
-28 -78 -61z"/>
<path d="M18364 15457 c15 -47 47 -226 56 -315 8 -76 7 -153 -5 -319 -8 -120
-33 -509 -55 -865 l-40 -648 40 -457 c22 -252 42 -487 46 -523 5 -60 4 -68
-20 -93 -31 -34 -75 -36 -111 -4 -22 19 -33 52 -76 226 -103 424 -209 686
-370 921 -76 111 -137 178 -316 346 -307 287 -542 517 -647 633 -61 66 -111
119 -112 118 -7 -7 38 -186 76 -301 130 -399 209 -532 855 -1441 109 -154 243
-347 298 -430 101 -154 233 -409 323 -627 27 -65 51 -114 55 -110 3 4 26 86
49 182 62 252 156 576 253 875 122 372 168 566 203 850 20 168 22 502 5 655
-48 417 -185 816 -409 1190 -66 110 -109 170 -98 137z"/>
<path d="M6378 15158 c-52 -95 -631 -1149 -1287 -2342 l-1193 -2169 59 -59
c32 -33 117 -112 188 -175 767 -677 1667 -1027 2504 -973 821 52 1532 400
2315 1132 l80 74 -36 64 c-19 36 -75 137 -124 225 -458 821 -2320 4222 -2315
4228 4 4 743 6 1642 5 l1634 -3 -3 -50 c-6 -118 -425 -5384 -441 -5541 -42
-409 -193 -684 -448 -815 l-68 -34 -1365 -5 c-996 -4 -1374 -8 -1397 -17 -115
-41 -217 -133 -252 -228 -28 -74 -28 -176 0 -250 42 -113 167 -211 299 -235
37 -7 1352 -9 3910 -8 3751 3 3856 4 3905 22 128 48 221 147 251 265 43 173
-61 355 -242 424 l-59 22 -1396 5 -1395 5 -75 37 c-260 129 -419 428 -454 853
-3 39 -96 1202 -205 2585 -110 1383 -208 2614 -218 2735 -11 121 -17 223 -15
228 6 10 3263 9 3263 -1 0 -5 -509 -933 -1131 -2063 -622 -1130 -1180 -2143
-1239 -2252 l-108 -198 111 -106 c343 -325 725 -598 1092 -778 777 -382 1563
-433 2370 -155 515 178 1054 515 1467 919 l118 114 -49 91 c-27 50 -606 1104
-1288 2341 l-1240 2250 -3536 3 -3535 2 -94 -172z m8317 -2256 l1150 -2087
-1152 -3 c-634 -1 -1672 -1 -2307 0 l-1153 3 1151 2092 c633 1150 1153 2089
1156 2087 2 -3 522 -944 1155 -2092z m-7072 1 c631 -1147 1146 -2088 1144
-2090 -2 -1 -1037 -2 -2299 -1 l-2296 3 1147 2087 c630 1148 1148 2087 1151
2087 3 0 521 -938 1153 -2086z"/>
<path d="M1488 15223 c-14 -21 -53 -89 -87 -151 -282 -512 -406 -1072 -360
-1629 28 -353 95 -635 258 -1090 90 -255 172 -514 261 -827 28 -99 52 -181 53
-182 1 -2 36 81 77 184 146 368 237 526 629 1102 253 370 494 738 541 824 112
206 254 618 275 796 l7 55 -29 -35 c-86 -106 -224 -253 -553 -585 -202 -203
-388 -400 -414 -437 -174 -247 -298 -556 -391 -973 -26 -115 -50 -214 -53
-220 -40 -74 -112 -74 -150 0 -7 15 -1 165 23 530 l34 510 -60 710 c-32 391
-63 751 -68 800 -26 240 -22 374 18 569 9 47 16 86 15 86 -1 0 -12 -17 -26
-37z"/>
<path d="M19217 12800 c-3 -25 -11 -97 -17 -160 -27 -271 -47 -346 -201 -736
-301 -767 -411 -1062 -463 -1245 -13 -47 -41 -193 -61 -325 -63 -410 -114
-627 -178 -747 -48 -92 -96 -118 -137 -77 -27 27 -26 89 5 220 86 366 40 914
-114 1361 -87 253 -142 359 -435 846 -129 216 -247 415 -261 443 -14 27 -28
50 -30 50 -10 0 36 -387 75 -630 80 -493 165 -848 296 -1234 168 -497 249
-787 298 -1076 32 -181 49 -386 41 -465 -5 -38 -4 -56 2 -50 6 6 50 69 98 140
108 158 172 244 330 440 232 288 354 477 496 770 356 733 456 1552 290 2380
-26 130 -28 137 -34 95z"/>
<path d="M707 12570 c-10 -24 -55 -353 -67 -485 -5 -66 -10 -195 -10 -286 0
-890 300 -1722 863 -2388 172 -203 305 -372 409 -518 56 -79 103 -142 104
-140 2 1 -2 35 -9 76 -8 55 -8 111 1 225 27 350 105 693 298 1310 41 132 88
292 104 355 100 401 196 1017 225 1446 l6 90 -54 -100 c-29 -55 -142 -257
-251 -449 -263 -466 -303 -547 -383 -781 -132 -389 -181 -841 -132 -1215 6
-41 24 -133 41 -203 33 -140 32 -186 -5 -212 -30 -21 -41 -19 -77 11 -86 73
-158 314 -255 850 -34 189 -56 285 -91 385 -53 156 -188 494 -304 764 -332
771 -355 839 -395 1175 -6 58 -15 98 -18 90z"/>
<path d="M17277 10105 c-113 -470 -175 -1004 -212 -1828 -23 -509 -50 -795
-100 -1072 -30 -162 -48 -219 -141 -457 -41 -104 -74 -191 -74 -194 0 -7 537
353 725 487 522 372 966 770 1238 1109 353 440 569 912 642 1399 21 142 36
394 27 458 l-7 53 -64 -145 c-115 -261 -277 -538 -429 -735 -37 -47 -152 -173
-257 -280 -189 -193 -303 -328 -467 -550 -125 -170 -344 -488 -496 -720 -157
-238 -226 -334 -296 -409 -43 -45 -125 -111 -139 -111 -2 0 -12 18 -22 39 -35
78 -1 204 84 316 181 236 283 741 252 1249 -17 284 -35 405 -131 921 -49 264
-93 503 -98 530 l-8 50 -27 -110z"/>
<path d="M2678 9902 c-9 -64 -44 -285 -77 -490 -80 -490 -88 -558 -100 -807
-29 -577 72 -1066 273 -1325 90 -115 124 -225 96 -310 -7 -22 -17 -40 -22 -40
-21 0 -97 62 -164 132 -74 78 -95 106 -340 458 -419 601 -654 893 -933 1160
-95 90 -206 203 -245 251 -184 218 -359 502 -506 819 l-35 75 -3 -50 c-6 -81
17 -330 44 -475 119 -654 481 -1254 1077 -1787 261 -232 557 -461 869 -670
295 -199 712 -457 716 -445 1 5 -36 99 -82 210 -95 225 -132 356 -171 609 -43
278 -63 478 -95 933 -42 605 -92 1023 -170 1419 -35 175 -102 451 -109 451 -3
0 -14 -53 -23 -118z"/>
<path d="M16538 8228 c-115 -135 -300 -442 -389 -646 -23 -53 -166 -464 -316
-912 -151 -448 -297 -869 -325 -935 -120 -284 -328 -662 -452 -823 -26 -34
-44 -62 -40 -62 4 0 71 18 148 39 294 82 496 129 804 186 300 56 603 160 899
309 714 357 1273 920 1623 1631 76 153 144 314 138 321 -2 2 -25 -24 -52 -57
-70 -87 -327 -350 -426 -437 -112 -98 -266 -199 -475 -313 -700 -379 -1530
-912 -1914 -1227 -62 -52 -146 -114 -185 -138 l-71 -44 -22 26 c-29 32 -29 47
2 111 17 38 68 98 177 210 269 277 427 519 557 851 111 287 170 558 206 944
24 271 94 710 150 949 8 35 13 65 11 67 -2 1 -24 -21 -48 -50z"/>
<path d="M3460 8109 c0 -2 18 -81 39 -174 70 -303 118 -577 150 -867 86 -758
361 -1345 836 -1783 60 -55 121 -120 137 -144 33 -52 37 -108 10 -141 l-17
-22 -75 43 c-41 24 -106 69 -144 100 -338 283 -1345 899 -2035 1244 -296 148
-413 235 -707 531 -254 254 -249 256 -99 -41 259 -510 599 -920 1042 -1254
480 -362 1045 -603 1606 -685 194 -29 776 -153 901 -192 12 -4 -1 18 -37 62
-122 152 -259 385 -413 697 -94 192 -131 288 -392 1012 -159 440 -304 834
-321 875 -68 159 -231 436 -351 595 -60 79 -130 157 -130 144z"/>
<path d="M15189 6263 c-122 -95 -391 -370 -645 -658 -443 -502 -736 -796 -969
-972 -169 -128 -612 -356 -870 -448 -14 -5 11 -13 80 -27 699 -134 1057 -209
1513 -317 549 -131 1305 -2 1903 325 137 74 164 91 289 178 220 154 490 412
630 601 15 19 14 19 -10 4 -325 -207 -640 -335 -1016 -414 -210 -44 -412 -65
-714 -75 -301 -10 -475 -25 -760 -66 -352 -50 -911 -149 -1108 -195 -105 -24
-102 -24 -102 10 0 21 13 41 53 79 68 64 109 84 391 193 316 123 424 188 584
348 232 232 439 583 681 1155 56 132 115 262 132 289 17 27 29 51 26 53 -2 2
-41 -26 -88 -63z"/>
<path d="M4816 6178 c5 -7 20 -31 35 -53 14 -22 68 -134 120 -250 257 -579
465 -915 720 -1160 179 -173 271 -221 718 -376 147 -52 221 -89 276 -142 34
-33 45 -51 45 -73 l0 -30 -122 23 c-181 33 -675 109 -898 137 -411 53 -593 67
-930 71 -588 7 -923 64 -1332 226 -114 45 -320 147 -397 196 -29 19 -55 33
-57 30 -2 -2 44 -56 101 -120 505 -562 1220 -909 2010 -977 311 -26 547 -5
835 77 178 50 716 178 1125 268 193 42 357 79 365 82 8 2 -25 19 -75 37 -149
54 -235 93 -460 207 -299 152 -377 204 -620 420 -131 116 -509 496 -696 699
-364 396 -501 531 -676 662 -77 57 -102 70 -87 46z"/>
<path d="M11015 4094 c-22 -2 -83 -9 -135 -15 -872 -100 -1769 -548 -2625
-1310 -120 -106 -505 -493 -505 -507 0 -4 58 -60 129 -124 l129 -117 131 149
c640 730 1375 1366 1854 1605 124 63 339 135 494 166 165 33 439 38 598 11
295 -51 529 -166 815 -402 441 -363 910 -634 1299 -749 200 -60 328 -75 616
-75 228 -1 276 2 388 22 407 73 753 223 1125 485 62 44 111 82 109 84 -2 2
-21 -3 -43 -11 -126 -44 -347 -80 -584 -97 -265 -17 -626 7 -818 56 -204 51
-340 101 -1357 500 -397 156 -661 254 -715 265 -208 46 -359 61 -615 65 -137
2 -268 1 -290 -1z"/>
<path d="M8630 4056 c-134 -16 -203 -28 -360 -63 -121 -26 -277 -89 -1250
-500 -865 -366 -969 -393 -1495 -393 -301 0 -558 31 -773 94 -45 13 -79 20
-77 15 3 -4 77 -55 163 -113 378 -252 750 -399 1157 -458 136 -20 502 -16 645
6 240 37 433 99 665 212 291 141 681 404 909 612 114 104 250 208 352 268 342
202 730 264 1143 182 124 -24 124 -24 176 -2 l40 17 -38 13 c-61 21 -311 74
-456 96 -176 26 -627 34 -801 14z"/>
<path d="M10248 3784 c-27 -8 -48 -18 -48 -22 0 -4 45 -31 99 -60 211 -114
536 -348 821 -591 272 -232 699 -643 928 -893 69 -76 130 -138 135 -138 5 0
65 55 133 122 l125 122 -113 114 c-458 461 -1003 868 -1548 1154 -155 82 -439
208 -466 207 -10 0 -40 -7 -66 -15z"/>
</g>
</svg>
